<svg xmlns="http://www.w3.org/2000/svg" fill="none" viewBox="0 0 100 37"><path fill="#19355e" d="M10.189 0H8.963v36.407h1.226zm8.962 22.69c0 1.99-1.607 3.6-3.596 3.6a3.594 3.594 0 0 1-3.596-3.6c0-1.991 1.608-3.6 3.596-3.6a3.594 3.594 0 0 1 3.596 3.6m0-8.864c0 1.991-1.607 3.6-3.596 3.6a3.594 3.594 0 0 1-3.596-3.6c0-1.99 1.608-3.6 3.596-3.6a3.594 3.594 0 0 1 3.596 3.6M7.192 18.272c0 1.99-1.607 3.6-3.596 3.6A3.594 3.594 0 0 1 0 18.271c0-1.991 1.607-3.6 3.596-3.6a3.594 3.594 0 0 1 3.596 3.6m29.91-3.531c-1.416 0-2.642.545-3.323 1.309v-6l-2.507.273v15.899h2.507v-1.173c.735.71 1.825 1.31 3.323 1.31 3.378 0 5.612-2.264 5.612-5.81.028-3.545-2.234-5.808-5.612-5.808m-.109 9.218c-1.961 0-3.269-1.446-3.269-3.41 0-1.963 1.28-3.408 3.27-3.408 1.96 0 3.296 1.445 3.296 3.409s-1.308 3.409-3.297 3.409m41.872-3.409c0-2.046 1.307-3.464 3.269-3.464 1.008 0 1.743.41 2.316 1.01l1.825-1.664c-1.035-1.064-2.37-1.718-4.141-1.718-3.324 0-5.803 2.481-5.803 5.808s2.48 5.809 5.803 5.809c3.296 0 5.775-2.509 5.775-5.809h-2.506c0 2.046-1.362 3.464-3.296 3.464-1.935.027-3.242-1.391-3.242-3.436M59.55 14.876v1.173c-.463-.6-1.743-1.309-3.242-1.309-3.242 0-5.693 2.4-5.693 5.809s2.451 5.808 5.693 5.808c1.526 0 2.779-.709 3.242-1.309v1.173h2.534V14.876zm-3.16 9.082c-1.88 0-3.324-1.555-3.324-3.41 0-1.854 1.444-3.408 3.324-3.408 1.825 0 3.242 1.554 3.242 3.409s-1.39 3.409-3.242 3.409m32.909 2.263h2.506v-6.272c0-1.664 1.008-2.864 2.642-2.864 1.717 0 2.48 1.091 2.48 2.864v6.272h2.506v-6.818c0-3.027-1.662-4.663-4.36-4.663-1.47 0-2.56.6-3.24 1.418v-6.109l-2.507.273v15.899zm-24.682 0h2.506v-6.272c0-1.691.872-2.864 2.507-2.864 1.634 0 2.479.873 2.479 2.864v6.272h2.506v-6.818c0-3.027-1.553-4.663-4.359-4.663-1.553 0-2.588.736-3.105 1.418v-1.282h-2.507v11.345zm-20.132 0h2.506v-6.272c0-1.691 1.117-2.81 2.697-2.81h.218V14.74c-1.58 0-2.37.6-2.915 1.309v-1.173h-2.506z"/></svg>
